<?xml version="1.0" encoding="iso-8859-1"?>
<!-- Generator: Adobe Illustrator 19.0.0, SVG Export Plug-In . SVG Version: 6.00 Build 0)  -->
<svg version="1.1" id="Capa_1" xmlns="http://www.w3.org/2000/svg" xmlns:xlink="http://www.w3.org/1999/xlink" x="0px" y="0px"
	 viewBox="0 0 512 512" style="enable-background:new 0 0 512 512;" xml:space="preserve">
<polygon style="fill:#00E676;" points="441.015,241.904 504.448,241.904 504.448,9.314 121.833,9.314 121.833,241.904 
	332.241,241.904 440.985,310.372 "/>
<g>
	<polygon style="fill:#FDD844;" points="200.37,82.731 212.816,107.949 240.645,111.993 220.507,131.622 225.261,159.339 
		200.37,146.253 175.479,159.339 180.232,131.622 160.094,111.993 187.924,107.949 	"/>
	<polygon style="fill:#FDD844;" points="312.637,50.596 325.083,75.813 352.913,79.858 332.775,99.487 337.528,127.205 
		312.637,114.118 287.746,127.205 292.5,99.487 272.362,79.858 300.191,75.813 	"/>
	<polygon style="fill:#FDD844;" points="424.905,82.731 437.351,107.949 465.18,111.993 445.042,131.622 449.796,159.339 
		424.905,146.253 400.013,159.339 404.767,131.622 384.629,111.993 412.459,107.949 	"/>
</g>
<path style="fill:#00C853;" d="M420.886,221.766l-0.023,52.139l-82.81-52.139h-48.216c-13.66-26.011-40.911-43.799-72.257-43.799
	h-20.138v43.799h-75.61v20.138h210.408l108.743,68.468l0.03-68.468h63.434v-20.138H420.886z"/>
<path style="fill:#FDD8A8;" d="M141.971,327.321l37.974-22.019c23.296-13.508,37.636-38.4,37.636-65.329v-41.869l0,0
	c33.95,0,61.471,27.548,61.471,61.532v56.763h97.513c13.628,0,24.676,11.048,24.676,24.676l0,0
	c0,13.628-11.047,24.676-24.676,24.676h-2.69v26.891c0,12.35-10.012,22.363-22.363,22.363l0,0v19.259
	c0,13.58-11.008,24.588-24.588,24.588l0,0v23.698c0,11.122-9.016,20.138-20.138,20.138H212.05l-70.079-31.382V327.321z"/>
<rect x="49.337" y="306.344" style="fill:#D8D7DA;" width="92.633" height="185.266"/>
<rect y="323.461" style="fill:#82B1FF;" width="49.337" height="151.032"/>
<path style="fill:#FFC477;" d="M141.971,451.167v20.138l70.078,31.382h94.736c11.122,0,20.138-9.016,20.138-20.138l0,0H212.049
	L141.971,451.167z"/>
<rect x="49.337" y="471.473" style="fill:#ACABB1;" width="92.633" height="20.138"/>
<rect y="454.356" style="fill:#448AFF;" width="49.337" height="20.138"/>
<g>
	<polygon style="fill:#FDAB08;" points="200.37,126.115 179.275,137.206 175.479,159.339 200.37,146.253 225.261,159.339 
		221.465,137.206 	"/>
	<polygon style="fill:#FDAB08;" points="312.637,93.98 291.542,105.07 287.746,127.205 312.637,114.118 337.528,127.205 
		333.732,105.07 	"/>
	<polygon style="fill:#FDAB08;" points="424.905,126.115 403.809,137.206 400.013,159.339 424.905,146.253 449.796,159.339 
		446,137.206 	"/>
</g>
<path d="M376.564,308.847h-89.961v-49.211c0-38.093-30.964-69.083-69.023-69.083h-7.552v49.421c0,24.152-12.98,46.681-33.874,58.796
	l-26.633,15.444v-15.42H41.786v17.117H0v15.103h41.786v135.929H0v15.103h41.786v17.117h107.736v-16.202l60.913,27.277h96.349
	c15.268,0,27.689-12.421,27.689-27.689v-17.041c14.09-3.406,24.588-16.122,24.588-31.245v-12.672
	c12.851-3.355,22.363-15.062,22.363-28.95v-19.705c15.472-2.35,27.366-15.743,27.366-31.862
	C408.792,323.305,394.335,308.847,376.564,308.847z M134.419,484.059h-77.53v-2.014V315.91v-2.014h77.53v9.075v153.227V484.059z
	 M376.564,358.199h-2.69h-7.552h-80.508v15.103h80.508v19.339c0,8.167-6.644,14.811-14.811,14.811h-3.689h-3.862h-58.145v15.103
	h58.145v11.707c0,9.394-7.643,17.036-17.037,17.036h-3.688h-3.863h-33.556v15.103h33.556v16.146c0,6.94-5.646,12.586-12.586,12.586
	h-93.122l-64.14-28.722V331.671l34.21-19.837c25.537-14.807,41.4-42.342,41.4-71.861v-33.791
	c26.17,3.688,46.368,26.253,46.368,53.452v64.315h105.064c9.442,0,17.124,7.682,17.124,17.124S386.007,358.199,376.564,358.199z"/>
<polygon points="114.281,1.762 114.281,249.455 192.405,249.455 192.405,234.352 129.384,234.352 129.384,16.865 496.897,16.865 
	496.897,234.352 433.466,234.352 433.439,296.697 334.421,234.352 302.397,234.352 302.397,249.455 330.062,249.455 448.53,324.046 
	448.563,249.455 512,249.455 512,1.762 "/>
<path d="M200.37,154.785l34.921,18.359l-6.67-38.885l28.252-27.539l-39.043-5.673l-17.46-35.379l-17.46,35.379l-39.043,5.673
	l28.252,27.539l-6.67,38.885L200.37,154.785z M192.939,114.851l7.431-15.057l7.431,15.057l16.616,2.415l-12.023,11.72l2.838,16.55
	l-14.862-7.814l-14.862,7.813l2.838-16.55l-12.023-11.72L192.939,114.851z"/>
<path d="M312.637,33.533l-17.46,35.378l-39.043,5.673l28.252,27.539l-6.67,38.885l34.921-18.359l34.921,18.359l-6.67-38.885
	l28.252-27.539l-39.043-5.673L312.637,33.533z M327.499,113.4l-14.862-7.813l-14.862,7.813l2.838-16.55l-12.023-11.72l16.616-2.415
	l7.431-15.057l7.431,15.057l16.616,2.415L324.66,96.85L327.499,113.4z"/>
<path d="M442.365,101.047l-17.46-35.379l-17.46,35.379l-39.043,5.673l28.252,27.539l-6.67,38.885l34.921-18.359l34.921,18.359
	l-6.67-38.885l28.252-27.539L442.365,101.047z M439.766,145.535l-14.862-7.813l-14.862,7.813l2.838-16.55l-12.023-11.72
	l16.616-2.415l7.431-15.056l7.431,15.057l16.616,2.415l-12.023,11.72L439.766,145.535z"/>
<rect x="275.383" y="165.884" width="15.103" height="15.103"/>
<rect x="335.796" y="165.884" width="15.103" height="15.103"/>
<rect x="305.589" y="165.884" width="15.103" height="15.103"/>
<rect x="74.509" y="153.298" width="15.103" height="15.103"/>
<rect x="44.303" y="153.298" width="15.103" height="15.103"/>
<rect x="14.096" y="153.298" width="15.103" height="15.103"/>
<rect x="74.509" y="82.816" width="15.103" height="15.103"/>
<rect x="44.303" y="82.816" width="15.103" height="15.103"/>
<rect x="14.096" y="82.816" width="15.103" height="15.103"/>
<g>
	<path style="fill:#FFFFFF;" d="M256.252,305.715h-15.103v-15.103h15.103V305.715z M256.252,275.508h-15.103v-26.557h15.103V275.508
		z"/>
	<path style="fill:#FFFFFF;" d="M179.729,400.991h-15.103v-15.103h15.103V400.991z M179.729,370.785h-15.103v-30.412l40.432-23.444
		l7.576,13.066l-32.905,19.079V370.785z"/>
	<rect x="70.482" y="328.999" style="fill:#FFFFFF;" width="50.344" height="15.103"/>
	<path style="fill:#FFFFFF;" d="M159.591,64.692h-15.103V31.969h47.827v15.103h-32.724V64.692z M222.521,47.072h-15.103V31.969
		h15.103V47.072z"/>
	<path style="fill:#FFFFFF;" d="M481.794,219.249h-47.827v-15.103h32.724v-17.62h15.103V219.249z M418.863,219.249H403.76v-15.103
		h15.103V219.249z"/>
	<path style="fill:#FFFFFF;" d="M474.242,47.072h-50.344V31.969h50.344V47.072z M408.794,47.072h-15.103V31.969h15.103V47.072z"/>
</g>
<g>
</g>
<g>
</g>
<g>
</g>
<g>
</g>
<g>
</g>
<g>
</g>
<g>
</g>
<g>
</g>
<g>
</g>
<g>
</g>
<g>
</g>
<g>
</g>
<g>
</g>
<g>
</g>
<g>
</g>
</svg>
