<?xml version="1.0" encoding="iso-8859-1"?>
<!-- Generator: Adobe Illustrator 19.0.0, SVG Export Plug-In . SVG Version: 6.00 Build 0)  -->
<svg version="1.1" id="Capa_1" xmlns="http://www.w3.org/2000/svg" xmlns:xlink="http://www.w3.org/1999/xlink" x="0px" y="0px"
	 viewBox="0 0 512 512" style="enable-background:new 0 0 512 512;" xml:space="preserve">
<g>
	<path style="fill:#34303D;" d="M480,432H168v-16h312c4.272,0,8.288-1.664,11.312-4.688S496,404.272,496,400v-32H168v-16h344v48
		c0,8.544-3.328,16.576-9.376,22.624S488.544,432,480,432z"/>
	<path style="fill:#34303D;" d="M512,360h-16V64c0-4.272-1.664-8.288-4.688-11.312S484.272,48,480,48h-8V32h8
		c8.544,0,16.576,3.328,22.624,9.376C508.672,47.416,512,55.456,512,64V360z"/>
	<path style="fill:#34303D;" d="M16,336H0V64c0-8.544,3.328-16.584,9.376-22.624C15.416,35.328,23.456,32,32,32h8v16h-8
		c-4.272,0-8.288,1.664-11.312,4.688S16,59.728,16,64V336z"/>
	<path style="fill:#34303D;" d="M368,512h-16c0-2.136-0.832-4.144-2.344-5.656S346.136,504,344,504H168
		c-2.136,0-4.144,0.832-5.664,2.352C160.832,507.856,160,509.856,160,512h-16c0-6.416,2.504-12.448,7.032-16.976S161.6,488,168,488
		h176c6.408,0,12.44,2.504,16.968,7.032S368,505.592,368,512z"/>
	
		<rect x="315.989" y="423.792" transform="matrix(-0.9939 0.1104 -0.1104 -0.9939 696.78 881.4054)" style="fill:#34303D;" width="16" height="72.401"/>
	
		<rect x="151.826" y="452.035" transform="matrix(-0.1104 0.9939 -0.9939 -0.1104 666.0071 323.9446)" style="fill:#34303D;" width="72.401" height="16"/>
	<rect x="232" y="384" style="fill:#34303D;" width="48" height="16"/>
</g>
<polygon style="fill:#57DCF2;" points="440,64 440,296 280,296 256,320 232,296 72,296 72,64 32,64 32,336 480,336 480,64 "/>
<g>
	<path style="fill:#34303D;" d="M256,339.312L228.688,312H56V0h179.312L256,20.688L276.688,0H456v312H283.312L256,339.312z M72,296
		h163.312L256,316.688L276.688,296H440V16H283.312L256,43.312L228.688,16H72V296z"/>
	<rect x="248" y="32" style="fill:#34303D;" width="16" height="248"/>
	<rect x="88" y="40" style="fill:#34303D;" width="144" height="16"/>
	<rect x="88" y="168" style="fill:#34303D;" width="112" height="16"/>
	<rect x="88" y="200" style="fill:#34303D;" width="144" height="16"/>
	<rect x="88" y="232" style="fill:#34303D;" width="112" height="16"/>
	<rect x="88" y="264" style="fill:#34303D;" width="144" height="16"/>
	<rect x="360" y="40" style="fill:#34303D;" width="64" height="16"/>
	<rect x="360" y="72" style="fill:#34303D;" width="64" height="16"/>
	<rect x="360" y="104" style="fill:#34303D;" width="64" height="16"/>
	<rect x="360" y="136" style="fill:#34303D;" width="64" height="16"/>
	<rect x="280" y="168" style="fill:#34303D;" width="144" height="16"/>
	<rect x="280" y="232" style="fill:#34303D;" width="144" height="16"/>
	<rect x="280" y="264" style="fill:#34303D;" width="144" height="16"/>
	<path style="fill:#34303D;" d="M344,152h-16V72c0-4.272-1.664-8.288-4.688-11.312c-6.048-6.048-16.576-6.048-22.624,0
		C297.664,63.712,296,67.728,296,72v80h-16V72c0-8.544,3.328-16.584,9.376-22.624c12.096-12.096,33.16-12.096,45.248,0
		C340.672,55.416,344,63.456,344,72V152z"/>
	<rect x="288" y="88" style="fill:#34303D;" width="48" height="16"/>
</g>
<rect x="88" y="72" style="fill:#FF5F5C;" width="144" height="80"/>
<polygon style="fill:#FFFFFF;" points="144,96 176,112 144,128 "/>
<g>
	<rect x="312" y="200" style="fill:#34303D;" width="16" height="16"/>
	<rect x="344" y="200" style="fill:#34303D;" width="16" height="16"/>
	<rect x="376" y="200" style="fill:#34303D;" width="16" height="16"/>
	<path style="fill:#34303D;" d="M104,512H16c-4.28,0-8.304-1.664-11.32-4.696C1.664,504.28,0,500.264,0,496V352h120v144
		c0,4.264-1.664,8.28-4.68,11.304C112.304,510.336,108.28,512,104,512z M16,368v128h88V368H16z"/>
	<path style="fill:#34303D;" d="M128,480h-24v-96h24c6.4,0,12.432,2.496,16.968,7.024S152,401.584,152,408v48
		c0,6.416-2.504,12.448-7.032,16.976S134.4,480,128,480z M120,464h8c2.136,0,4.144-0.832,5.664-2.352
		c1.504-1.504,2.336-3.504,2.336-5.648v-48c0-2.144-0.832-4.144-2.336-5.648c-1.52-1.52-3.528-2.352-5.664-2.352h-8V464z"/>
	<path style="fill:#34303D;" d="M512,512H400v-16c0-10.688,4.168-20.736,11.72-28.288C419.264,460.168,429.312,456,440,456h32
		c10.688,0,20.736,4.168,28.288,11.72C507.832,475.264,512,485.312,512,496V512z M416,496h80c0-6.416-2.496-12.44-7.032-16.96
		C484.44,474.496,478.416,472,472,472h-32c-6.416,0-12.44,2.496-16.96,7.032C418.496,483.56,416,489.584,416,496z"/>
</g>
<g>
</g>
<g>
</g>
<g>
</g>
<g>
</g>
<g>
</g>
<g>
</g>
<g>
</g>
<g>
</g>
<g>
</g>
<g>
</g>
<g>
</g>
<g>
</g>
<g>
</g>
<g>
</g>
<g>
</g>
</svg>
